{"title":"Hornet's Nest (1970) DVDRip","uid":8301155,"size":1232083486,"categoryP":"video","categoryS":"movies","magnet":"?xt=urn:btih:8432b80e5ac35fd5e8b37e2a500c65c57964d303&amp;dn=Hornet%27s+Nest+%281970%29+DVDRip&amp;tr=udp%3A%2F%2Ftracker.openbittorrent.com%3A80&amp;tr=udp%3A%2F%2Fopen.demonii.com%3A1337&amp;tr=udp%3A%2F%2Ftracker.coppersurfer.tk%3A6969&amp;tr=udp%3A%2F%2Fexodus.desync.com%3A6969","seeders":0,"leechers":2,"uploader":"RadioResearch","files":3,"time":1364273120,"description":"*******************************************************************************\n                          Hornet's Nest (1970) DVDRip\n*******************************************************************************\n\n-------------------------------------------------------------------------------\n                              General Information\n-------------------------------------------------------------------------------\nType.................: Movie\n\n\n\nVideo Format.........: AVI\nVideo Bitrate........: 1495\nResolution...........: 720 x 392\nColor................: 8 bit\nFPS..................: 23.976\nSource...............: DVD 1.85:1\nOriginal Format......: NTSC\nGenre................: War\nIMDb Rating..........: 5.2\nMovie Information....: http://www.imdb.com/title/tt0065850/\n\n-------------------------------------------------------------------------------\n                               Post Information\n-------------------------------------------------------------------------------\nPosted by............: RadioResearch\nPosted on............: 3/26/2013\n\n-------------------------------------------------------------------------------\n                                 Release Notes\n-------------------------------------------------------------------------------\nSEEDBOX SUPPORTED!!\n\nA commando unit is dropped behind the German lines in Italy and its mission is \nto blow up a strategic dam. However, the unit is ambushed and only its leader \nsurvives. He is picked up by a ragtag group of local youths, who strike a \nbargain with him--they will help him blow the dam if he will help them get \nrevenge on the Germans, who have taken over their village and killed their \nparents. \n\nEnjoy!\n\nRadioResearch\n\nGeneral\nComplete name                            : G:Hornet's Nest \n(1970)HORNETS_NEST.Title1.avi\nFormat                                   : AVI\nFormat/Info                              : Audio Video Interleave\nFormat profile                           : OpenDML\nFile size                                : 1.15 GiB\nDuration                                 : 1h 49mn\nOverall bit rate                         : 1 495 Kbps\nMovie name                               : HORNETS_NEST.Title1.DVDRip\nWriting application                      : Lavf53.32.100\nOriginal source form/Name                : HORNETS_NEST\n\nVideo\nID                                       : 0\nFormat                                   : MPEG-4 Visual\nFormat profile                           : Advanced Simple@L5\nFormat settings, BVOP                    : 2\nFormat settings, QPel                    : No\nFormat settings, GMC                     : No warppoints\nFormat settings, Matrix                  : Default (H.263)\nMuxing mode                              : Packed bitstream\nCodec ID                                 : XVID\nCodec ID/Hint                            : XviD\nDuration                                 : 1h 49mn\nBit rate                                 : 1 354 Kbps\nWidth                                    : 720 pixels\nHeight                                   : 392 pixels\nDisplay aspect ratio                     : 1.85:1\nFrame rate                               : 23.976 fps\nColor space                              : YUV\nChroma subsampling                       : 4:2:0\nBit depth                                : 8 bits\nScan type                                : Progressive\nCompression mode                         : Lossy\nBits/(Pixel*Frame)                       : 0.200\nStream size                              : 1.04 GiB (91%)\nWriting library                          : XviD 64\n\nAudio\nID                                       : 1\nFormat                                   : AC-3\nFormat/Info                              : Audio Coding 3\nMode extension                           : CM (complete main)\nFormat settings, Endianness              : Big\nCodec ID                                 : 2000\nDuration                                 : 1h 49mn\nBit rate mode                            : Constant\nBit rate                                 : 128 Kbps\nChannel(s)                               : 2 channels\nChannel positions                        : Front: L R\nSampling rate                            : 48.0 KHz\nBit depth                                : 16 bits\nCompression mode                         : Lossy\nStream size                              : 101 MiB (9%)\nAlignment                                : Aligned on interleaves\nInterleave, duration                     : 32 ms (0.77 video frame)\n\n\n\n\n-------------------------------------------------------------------------------\nGenerated with Cool NFO Creator - http://fly.to/coolbeans\n-------------------------------------------------------------------------------\n","torrent":{"xt":"urn:btih:8432b80e5ac35fd5e8b37e2a500c65c57964d303","amp;dn":"Hornet%27s+Nest+%281970%29+DVDRip","amp;tr":["udp%3A%2F%2Ftracker.openbittorrent.com%3A80","udp%3A%2F%2Fopen.demonii.com%3A1337","udp%3A%2F%2Ftracker.coppersurfer.tk%3A6969","udp%3A%2F%2Fexodus.desync.com%3A6969"],"infoHash":"8432b80e5ac35fd5e8b37e2a500c65c57964d303","infoHashBuffer":{"type":"Buffer","data":[132,50,184,14,90,195,95,213,232,179,126,42,80,12,101,197,121,100,211,3]},"announce":[],"urlList":[]}}